<?xml version="1.0" encoding="UTF-8" standalone="no"?>
<!DOCTYPE svg PUBLIC "-//W3C//DTD SVG 1.1//EN" "http://www.w3.org/Graphics/SVG/1.1/DTD/svg11.dtd">
<svg xmlns="http://www.w3.org/2000/svg" p-id="2777" xmlns:xlink="http://www.w3.org/1999/xlink" version="1.1" role="presentation" width="22" height="22" viewBox="0 0 200 200" >
<defs><style type="text/css"></style></defs>
<path d="M25,41.667h150c2.3,0,4.264,0.814,5.892,2.442c1.628,1.627,2.442,3.592,2.442,5.892
s-0.814,4.264-2.442,5.892c-1.628,1.628-3.592,2.442-5.892,2.442H25c-2.3,0-4.264-0.814-5.892-2.442S16.667,52.3,16.667,50
s0.814-4.264,2.442-5.892C20.736,42.48,22.7,41.667,25,41.667z M25,141.666h150c2.3,0,4.264,0.814,5.892,2.442
s2.442,3.592,2.442,5.892s-0.814,4.264-2.442,5.892s-3.592,2.442-5.892,2.442H25c-2.3,0-4.264-0.814-5.892-2.442
S16.667,152.3,16.667,150s0.814-4.264,2.442-5.892S22.7,141.666,25,141.666z M25,91.667h150c2.3,0,4.264,0.814,5.892,2.442
s2.442,3.592,2.442,5.892s-0.814,4.264-2.442,5.892s-3.592,2.442-5.892,2.442H25c-2.3,0-4.264-0.814-5.892-2.442
S16.667,102.3,16.667,100s0.814-4.264,2.442-5.892C20.736,92.48,22.7,91.667,25,91.667z" style="fill: rgb(102, 115, 156);"></path>  
</svg>